<svg version="1.1" xmlns="http://www.w3.org/2000/svg" xmlns:xlink="http://www.w3.org/1999/xlink" width="48" height="48"><defs><linearGradient x1="5.26179" y1="5.2619" x2="82.74516" y2="82.74505" gradientUnits="userSpaceOnUse" id="color-1"><stop offset="0" stop-color="#000000" stop-opacity="0.49"></stop><stop offset="1" stop-color="#000000" stop-opacity="0"></stop></linearGradient><filter id="dropshadow-base"><feColorMatrix type="matrix" values="0 0 0 0 0  0 0 0 0 0  0 0 0 0 0  0 0 0 .8 0"></feColorMatrix> <feOffset dx="0" dy="1"></feOffset> <feGaussianBlur stdDeviation="1"></feGaussianBlur> <feComposite in="SourceGraphic"></feComposite></filter><filter id="dropshadow-banner" x="-10%" y="-10%" width="120%" height="130%"><feColorMatrix type="matrix" values="0 0 0 0 0  0 0 0 0 0  0 0 0 0 0  0 0 0 .4 0"></feColorMatrix> <feOffset dx="0" dy="1"></feOffset> <feGaussianBlur stdDeviation="0.5"></feGaussianBlur> <feComposite in="SourceGraphic"></feComposite></filter></defs><g fill="none" fill-rule="nonzero" stroke="none" stroke-width="none" stroke-linecap="butt" stroke-linejoin="miter" stroke-miterlimit="10" stroke-dasharray="" stroke-dashoffset="0" font-family="none" font-weight="none" font-size="none" text-anchor="none" style="mix-blend-mode: normal"><path d="M2,24c0,-12.15026 9.84974,-22 22,-22c12.15026,0 22,9.84974 22,22c0,12.15026 -9.84974,22 -22,22c-12.15026,0 -22,-9.84974 -22,-22z" id="base 1 9" fill="#c6b5f0" stroke-width="1"></path><path d="M6.43293,33.95473l0,-12.092l-1.17114,-1.17114v-6.0899l7.73865,-3.85722c-0.08425,-0.32981 -0.12633,-0.67433 -0.12633,-1.03231c0,-1.8738 1.61034,-3.2499 3.86477,-3.2499c1.13703,0 2.16981,0.34343 3.08839,0.87948l4.17273,-2.07985l4.14534,2.06619c0.92231,-0.545 1.9632,-0.89511 3.11564,-0.89511c1.20564,0 2.26988,0.40653 2.97303,1.10967l5.62297,5.62297l2.88123,1.43611l1.97958,1.97958c0.83006,2.31779 1.28221,4.81543 1.28221,7.41868c0,12.15026 -9.84974,22 -22,22c-2.26155,0 -4.44339,-0.34124 -6.49686,-0.97505z" fill="url(#color-1)" stroke-width="1"></path><path transform="translate(-20.97168,-20.97168) scale(1.87382,1.87382)" d="M33.375,29.31254l-9.375,4.68742l-3.75003,-1.87498v0.00001l-0.48385,-0.24193l-5.14111,-2.57051l0,-6.77151l-0.625,-0.30662v-3.24999l4.12988,-2.05848c-0.04496,-0.17601 -0.06742,-0.35987 -0.06742,-0.55091c0,-0.99999 0.85939,-1.73437 2.06251,-1.73437c0.6068,0 1.15796,0.18328 1.64818,0.46935l2.22686,-1.10995l2.21224,1.10266c0.49221,-0.29085 1.0477,-0.47769 1.66272,-0.47769c0.82813,0 1.53125,0.3594 1.85938,0.95314c0.14064,0.25002 0.20312,0.53126 0.20308,0.8125c0,0.17462 -0.03066,0.34993 -0.09157,0.52319l4.15415,2.07058v3.24999l-0.625,0.30471z" fill="none" stroke-width="0"></path><g id="Layer_1 2" stroke-width="1"><path d="M6.43295,15.21655l17.56705,8.78353l17.56705,-8.78353v18.7382l-17.56705,8.78338l-17.56705,-8.78353z" fill="#db5449"></path><path d="M6.43295,16.97312v5.47504l17.50847,8.57857l17.62556,-8.60786v-5.44575l-17.56698,8.60794z" fill="#c54b42"></path><path d="M24,42.73813v-18.73805l-16.39591,-8.19795h-1.17115v18.15263z" fill="#d05045"></path><path d="M6.43295,16.97312v5.47504l17.50847,8.57857l0.05858,-0.02929v-5.44575v0.02929z" fill="#bb483e"></path><path d="M5.2618,14.60168l18.7382,-9.33981l18.7382,9.33981v1.22973l-18.7382,9.33966l-18.7382,-9.31045z" fill="#eb6258"></path><path d="M34.74513,8.21896c-0.61486,-1.11257 -1.93238,-1.78601 -3.48415,-1.78601c-3.54266,0 -6.03132,3.30849 -7.26105,5.41654c-1.22973,-2.10805 -3.74761,-5.38725 -7.26105,-5.38725c-2.25442,0 -3.86477,1.3761 -3.86477,3.24991c0,3.3377 3.65982,5.50433 11.00866,5.50433c7.34885,0 11.24291,-2.78142 11.24291,-5.47504c0.00007,-0.52699 -0.11701,-1.05399 -0.38054,-1.52248zM17.50019,11.82027c-0.81982,-0.55628 -1.11257,-1.17115 -1.11257,-1.58106c0,-0.4977 0.46849,-0.87832 1.14186,-0.87832c1.58106,0 2.84,2.07876 3.54266,3.51344c-1.84452,-0.14645 -2.92787,-0.64423 -3.57195,-1.05406zM30.49974,11.82027c-0.64415,0.40991 -1.72743,0.90761 -3.57195,1.05399c0.67337,-1.43461 1.93238,-3.51344 3.54266,-3.51344c0.67337,0 1.14186,0.38062 1.14186,0.87832c0.00007,0.40998 -0.29275,1.02477 -1.11257,1.58113z" fill="#efefef"></path><path d="M5.2618,14.63097l18.7382,9.16415l18.7382,-9.16415v6.06061l-18.79678,9.16415l-18.67962,-9.16415z" fill="#e2574c"></path><path d="M31.02681,21.16v-0.67337l-7.02681,-3.80619l-7.02681,3.80619v0.67337l-4.68451,-2.04947v-0.9369l11.47708,-6.06061l0.23424,0.11708l0.23424,-0.11708l11.47708,6.03132v0.9369z" fill="#efefef"></path><path d="M31.02681,20.48663v18.70891l4.68451,-2.34229v-18.70891z" fill="#dcdcdc"></path><path d="M12.28861,36.88247l4.68451,2.34229v-18.70884l-4.68451,-2.37158c0,-0.00007 0,18.73813 0,18.73813z" fill="#d1d1d1"></path><g fill="#000000" font-family="Roboto, sans-serif" font-weight="normal" font-size="14" text-anchor="start"></g><g fill="#000000" font-family="Roboto, sans-serif" font-weight="normal" font-size="14" text-anchor="start"></g><g fill="#000000" font-family="Roboto, sans-serif" font-weight="normal" font-size="14" text-anchor="start"></g><g fill="#000000" font-family="Roboto, sans-serif" font-weight="normal" font-size="14" text-anchor="start"></g><g fill="#000000" font-family="Roboto, sans-serif" font-weight="normal" font-size="14" text-anchor="start"></g><g fill="#000000" font-family="Roboto, sans-serif" font-weight="normal" font-size="14" text-anchor="start"></g><g fill="#000000" font-family="Roboto, sans-serif" font-weight="normal" font-size="14" text-anchor="start"></g><g fill="#000000" font-family="Roboto, sans-serif" font-weight="normal" font-size="14" text-anchor="start"></g><g fill="#000000" font-family="Roboto, sans-serif" font-weight="normal" font-size="14" text-anchor="start"></g><g fill="#000000" font-family="Roboto, sans-serif" font-weight="normal" font-size="14" text-anchor="start"></g><g fill="#000000" font-family="Roboto, sans-serif" font-weight="normal" font-size="14" text-anchor="start"></g><g fill="#000000" font-family="Roboto, sans-serif" font-weight="normal" font-size="14" text-anchor="start"></g><g fill="#000000" font-family="Roboto, sans-serif" font-weight="normal" font-size="14" text-anchor="start"></g><g fill="#000000" font-family="Roboto, sans-serif" font-weight="normal" font-size="14" text-anchor="start"></g><g fill="#000000" font-family="Roboto, sans-serif" font-weight="normal" font-size="14" text-anchor="start"></g></g><path d="M2,24c0,-12.15026 9.84974,-22 22,-22c12.15026,0 22,9.84974 22,22c0,12.15026 -9.84974,22 -22,22c-12.15026,0 -22,-9.84974 -22,-22z" id="base 1 5 1" fill="none" stroke-width="1"></path><path d="M2,24c0,-12.15026 9.84974,-22 22,-22c12.15026,0 22,9.84974 22,22c0,12.15026 -9.84974,22 -22,22c-12.15026,0 -22,-9.84974 -22,-22z" id="base 1 1 1" fill="none" stroke-width="1"></path><g fill="#000000" stroke-width="1" font-family="Roboto, sans-serif" font-weight="normal" font-size="14" text-anchor="start"></g><rect x="2" y="2" width="44" height="22" fill="none" stroke-width="1"></rect><path d="M2,24v-22h44v22z" fill="none" stroke-width="1"></path><path d="M2,24v-22h44v22z" fill="none" stroke-width="1"></path><path d="M2,24v-22h44v22z" fill="none" stroke-width="1"></path><path d="M2,24v-22h44v22z" fill="none" stroke-width="1"></path><g id="Layer_1 1 1" fill="#000000" stroke-width="1" font-family="Roboto, sans-serif" font-weight="normal" font-size="14" text-anchor="start"><g></g><g></g><g></g><g></g><g></g><g></g><g></g><g></g><g></g><g></g><g></g><g></g><g></g><g></g><g></g></g><path d="M16,36v-12h30v12z" id="banner 1" fill="#6e6e6e" stroke-width="1" filter="url(#dropshadow-banner)"></path><text x="31" y="33" fill="#ffffff" stroke-width="1" font-family="sans-serif" font-weight="bold" font-size="8" text-anchor="middle">DEV</text><rect x="2" y="2" width="44" height="22" fill="none" stroke-width="1"></rect><path d="M2,24v-22h44v22z" fill="none" stroke-width="1"></path><path d="M2,24v-22h44v22z" fill="none" stroke-width="1"></path><path d="M2,24v-22h44v22z" fill="none" stroke-width="1"></path><path d="M2,24v-22h44v22z" fill="none" stroke-width="1"></path></g></svg>